{
  "accessors": [
    {
      "bufferView": 2,
      "componentType": 5126,
      "count": 65532,
      "max": [
        0.3023917078971863,
        0.9463943243026733,
        0.16877108812332153
      ],
      "min": [
        -0.3011833131313324,
        -0.9507211446762085,
        -0.1620834469795227
      ],
      "type": "VEC3"
    },
    {
      "bufferView": 2,
      "byteOffset": 786384,
      "componentType": 5126,
      "count": 65532,
      "max": [
        0.9999690055847168,
        0.9999380111694336,
        1.0
      ],
      "min": [
        -0.9999380111694336,
        -1.0,
        -0.9999380111694336
      ],
      "type": "VEC3"
    },
    {
      "bufferView": 3,
      "componentType": 5126,
      "count": 65532,
      "max": [
        0.9999576210975647,
        0.9999997615814209,
        0.9999918341636658,
        1.0
      ],
      "min": [
        -0.9999955892562866,
        -0.9999966621398926,
        -1.0,
        -1.0
      ],
      "type": "VEC4"
    },
    {
      "bufferView": 1,
      "componentType": 5126,
      "count": 65532,
      "max": [
        0.9968547821044922,
        0.9999764561653137
      ],
      "min": [
        4.028560215374455e-05,
        0.0046599856577813625
      ],
      "type": "VEC2"
    },
    {
      "bufferView": 1,
      "byteOffset": 524256,
      "componentType": 5126,
      "count": 65532,
      "max": [
        0.9968547821044922,
        0.9999764561653137
      ],
      "min": [
        4.028560215374455e-05,
        0.0046599856577813625
      ],
      "type": "VEC2"
    },
    {
      "bufferView": 1,
      "byteOffset": 1048512,
      "componentType": 5126,
      "count": 65532,
      "max": [
        0.9968547821044922,
        0.9999764561653137
      ],
      "min": [
        4.028560215374455e-05,
        0.0046599856577813625
      ],
      "type": "VEC2"
    },
    {
      "bufferView": 1,
      "byteOffset": 1572768,
      "componentType": 5126,
      "count": 65532,
      "max": [
        0.9968547821044922,
        0.9999764561653137
      ],
      "min": [
        4.028560215374455e-05,
        0.0046599856577813625
      ],
      "type": "VEC2"
    },
    {
      "bufferView": 1,
      "byteOffset": 2097024,
      "componentType": 5126,
      "count": 65532,
      "max": [
        0.9968547821044922,
        0.9999764561653137
      ],
      "min": [
        4.028560215374455e-05,
        0.0046599856577813625
      ],
      "type": "VEC2"
    },
    {
      "bufferView": 0,
      "componentType": 5125,
      "count": 317841,
      "type": "SCALAR"
    },
    {
      "bufferView": 2,
      "byteOffset": 1572768,
      "componentType": 5126,
      "count": 65532,
      "max": [
        0.2986859381198883,
        0.9335399866104126,
        0.07381108403205872
      ],
      "min": [
        -0.30257296562194824,
        -0.9502578973770142,
        -0.16949495673179626
      ],
      "type": "VEC3"
    },
    {
      "bufferView": 2,
      "byteOffset": 2359152,
      "componentType": 5126,
      "count": 65532,
      "max": [
        0.9999690055847168,
        0.9999690055847168,
        0.9999690055847168
      ],
      "min": [
        -0.9999690055847168,
        -1.0,
        -1.0
      ],
      "type": "VEC3"
    },
    {
      "bufferView": 3,
      "byteOffset": 1048512,
      "componentType": 5126,
      "count": 65532,
      "max": [
        0.9999997019767761,
        0.9999929070472717,
        0.9999905228614807,
        1.0
      ],
      "min": [
        -1.0,
        -0.999989926815033,
        -0.9999994039535522,
        -1.0
      ],
      "type": "VEC4"
    },
    {
      "bufferView": 1,
      "byteOffset": 2621280,
      "componentType": 5126,
      "count": 65532,
      "max": [
        0.9953942894935608,
        0.9999764561653137
      ],
      "min": [
        0.00028370795189403,
        0.0031948485411703587
      ],
      "type": "VEC2"
    },
    {
      "bufferView": 1,
      "byteOffset": 3145536,
      "componentType": 5126,
      "count": 65532,
      "max": [
        0.9953942894935608,
        0.9999764561653137
      ],
      "min": [
        0.00028370795189403,
        0.0031948485411703587
      ],
      "type": "VEC2"
    },
    {
      "bufferView": 1,
      "byteOffset": 3669792,
      "componentType": 5126,
      "count": 65532,
      "max": [
        0.9953942894935608,
        0.9999764561653137
      ],
      "min": [
        0.00028370795189403,
        0.0031948485411703587
      ],
      "type": "VEC2"
    },
    {
      "bufferView": 1,
      "byteOffset": 4194048,
      "componentType": 5126,
      "count": 65532,
      "max": [
        0.9953942894935608,
        0.9999764561653137
      ],
      "min": [
        0.00028370795189403,
        0.0031948485411703587
      ],
      "type": "VEC2"
    },
    {
      "bufferView": 1,
      "byteOffset": 4718304,
      "componentType": 5126,
      "count": 65532,
      "max": [
        0.9953942894935608,
        0.9999764561653137
      ],
      "min": [
        0.00028370795189403,
        0.0031948485411703587
      ],
      "type": "VEC2"
    },
    {
      "bufferView": 0,
      "byteOffset": 1271364,
      "componentType": 5125,
      "count": 319449,
      "type": "SCALAR"
    },
    {
      "bufferView": 2,
      "byteOffset": 3145536,
      "componentType": 5126,
      "count": 16597,
      "max": [
        0.3014652729034424,
        0.9465101361274719,
        0.09616142511367798
      ],
      "min": [
        -0.3031519949436188,
        -0.949678897857666,
        -0.09491661936044693
      ],
      "type": "VEC3"
    },
    {
      "bufferView": 2,
      "byteOffset": 3344700,
      "componentType": 5126,
      "count": 16597,
      "max": [
        0.9999690055847168,
        0.9998451471328735,
        0.9999380111694336
      ],
      "min": [
        -0.9998760223388672,
        -0.9999690055847168,
        -0.9999380111694336
      ],
      "type": "VEC3"
    },
    {
      "bufferView": 3,
      "byteOffset": 2097024,
      "componentType": 5126,
      "count": 16597,
      "max": [
        0.9996744990348816,
        0.9999944567680359,
        0.9999545216560364,
        1.0
      ],
      "min": [
        -0.9999677538871765,
        -0.9999988675117493,
        -0.9999582767486572,
        -1.0
      ],
      "type": "VEC4"
    },
    {
      "bufferView": 1,
      "byteOffset": 5242560,
      "componentType": 5126,
      "count": 16597,
      "max": [
        0.9922297596931458,
        0.9999764561653137
      ],
      "min": [
        0.0005271302652545273,
        2.0384788513183594e-05
      ],
      "type": "VEC2"
    },
    {
      "bufferView": 1,
      "byteOffset": 5375336,
      "componentType": 5126,
      "count": 16597,
      "max": [
        0.9922297596931458,
        0.9999764561653137
      ],
      "min": [
        0.0005271302652545273,
        2.0384788513183594e-05
      ],
      "type": "VEC2"
    },
    {
      "bufferView": 1,
      "byteOffset": 5508112,
      "componentType": 5126,
      "count": 16597,
      "max": [
        0.9922297596931458,
        0.9999764561653137
      ],
      "min": [
        0.0005271302652545273,
        2.0384788513183594e-05
      ],
      "type": "VEC2"
    },
    {
      "bufferView": 1,
      "byteOffset": 5640888,
      "componentType": 5126,
      "count": 16597,
      "max": [
        0.9922297596931458,
        0.9999764561653137
      ],
      "min": [
        0.0005271302652545273,
        2.0384788513183594e-05
      ],
      "type": "VEC2"
    },
    {
      "bufferView": 1,
      "byteOffset": 5773664,
      "componentType": 5126,
      "count": 16597,
      "max": [
        0.9922297596931458,
        0.9999764561653137
      ],
      "min": [
        0.0005271302652545273,
        2.0384788513183594e-05
      ],
      "type": "VEC2"
    },
    {
      "bufferView": 0,
      "byteOffset": 2549160,
      "componentType": 5125,
      "count": 72327,
      "type": "SCALAR"
    }
  ],
  "asset": {
    "extras": {
      "author": "Tulio Portela (https://sketchfab.com/TulioPortela)",
      "license": "CC-BY-4.0 (http://creativecommons.org/licenses/by/4.0/)",
      "source": "https://sketchfab.com/3d-models/v0-basketball-player-free-1a9bb54337cc4452a3438b24ee18bb3c",
      "title": "v0 Basketball Player Free"
    },
    "generator": "Sketchfab-17.15.0",
    "version": "2.0"
  },
  "bufferViews": [
    {
      "buffer": 0,
      "byteLength": 2838468,
      "name": "floatBufferViews",
      "target": 34963
    },
    {
      "buffer": 0,
      "byteLength": 5906440,
      "byteOffset": 2838468,
      "byteStride": 8,
      "name": "floatBufferViews",
      "target": 34962
    },
    {
      "buffer": 0,
      "byteLength": 3543864,
      "byteOffset": 8744908,
      "byteStride": 12,
      "name": "floatBufferViews",
      "target": 34962
    },
    {
      "buffer": 0,
      "byteLength": 2362576,
      "byteOffset": 12288772,
      "byteStride": 16,
      "name": "floatBufferViews",
      "target": 34962
    }
  ],
  "buffers": [
    {
      "byteLength": 14651348,
      "uri": "scene.bin"
    }
  ],
  "images": [
    {
      "uri": "textures/material_0_baseColor.png"
    },
    {
      "uri": "textures/material_0_metallicRoughness.png"
    },
    {
      "uri": "textures/material_0_emissive.png"
    },
    {
      "uri": "textures/material_0_normal.png"
    }
  ],
  "materials": [
    {
      "doubleSided": true,
      "emissiveFactor": [
        1.0,
        1.0,
        1.0
      ],
      "emissiveTexture": {
        "index": 2,
        "texCoord": 2
      },
      "name": "material_0",
      "normalTexture": {
        "index": 3,
        "texCoord": 3
      },
      "pbrMetallicRoughness": {
        "baseColorTexture": {
          "index": 0
        },
        "metallicRoughnessTexture": {
          "index": 1,
          "texCoord": 1
        }
      }
    }
  ],
  "meshes": [
    {
      "name": "Object_0",
      "primitives": [
        {
          "attributes": {
            "NORMAL": 1,
            "POSITION": 0,
            "TANGENT": 2,
            "TEXCOORD_0": 3,
            "TEXCOORD_1": 4,
            "TEXCOORD_2": 5,
            "TEXCOORD_3": 6,
            "TEXCOORD_4": 7
          },
          "indices": 8,
          "material": 0,
          "mode": 4
        }
      ]
    },
    {
      "name": "Object_1",
      "primitives": [
        {
          "attributes": {
            "NORMAL": 10,
            "POSITION": 9,
            "TANGENT": 11,
            "TEXCOORD_0": 12,
            "TEXCOORD_1": 13,
            "TEXCOORD_2": 14,
            "TEXCOORD_3": 15,
            "TEXCOORD_4": 16
          },
          "indices": 17,
          "material": 0,
          "mode": 4
        }
      ]
    },
    {
      "name": "Object_2",
      "primitives": [
        {
          "attributes": {
            "NORMAL": 19,
            "POSITION": 18,
            "TANGENT": 20,
            "TEXCOORD_0": 21,
            "TEXCOORD_1": 22,
            "TEXCOORD_2": 23,
            "TEXCOORD_3": 24,
            "TEXCOORD_4": 25
          },
          "indices": 26,
          "material": 0,
          "mode": 4
        }
      ]
    }
  ],
  "nodes": [
    {
      "children": [
        1
      ],
      "matrix": [
        1.0,
        0.0,
        0.0,
        0.0,
        0.0,
        2.220446049250313e-16,
        -1.0,
        0.0,
        0.0,
        1.0,
        2.220446049250313e-16,
        0.0,
        0.0,
        0.0,
        0.0,
        1.0
      ],
      "name": "Sketchfab_model"
    },
    {
      "children": [
        2
      ],
      "name": "root"
    },
    {
      "children": [
        3
      ],
      "matrix": [
        1.0,
        0.0,
        0.0,
        0.0,
        0.0,
        2.220446049250313e-16,
        1.0,
        0.0,
        0.0,
        -1.0,
        2.220446049250313e-16,
        0.0,
        0.0,
        0.0,
        0.0,
        1.0
      ],
      "name": "GLTF_SceneRootNode"
    },
    {
      "children": [
        4
      ],
      "name": "_1"
    },
    {
      "children": [
        5,
        6,
        7
      ],
      "name": "mesh_0_0"
    },
    {
      "mesh": 0,
      "name": "Object_5"
    },
    {
      "mesh": 1,
      "name": "Object_6"
    },
    {
      "mesh": 2,
      "name": "Object_7"
    }
  ],
  "samplers": [
    {
      "magFilter": 9729,
      "minFilter": 9987,
      "wrapS": 10497,
      "wrapT": 10497
    }
  ],
  "scene": 0,
  "scenes": [
    {
      "name": "Sketchfab_Scene",
      "nodes": [
        0
      ]
    }
  ],
  "textures": [
    {
      "sampler": 0,
      "source": 0
    },
    {
      "sampler": 0,
      "source": 1
    },
    {
      "sampler": 0,
      "source": 2
    },
    {
      "sampler": 0,
      "source": 3
    }
  ]
}
